<mxfile host="Electron" modified="2024-06-01T12:58:44.592Z" agent="Mozilla/5.0 (Windows NT 10.0; Win64; x64) AppleWebKit/537.36 (KHTML, like Gecko) draw.io/24.4.7 Chrome/124.0.6367.207 Electron/30.0.6 Safari/537.36" etag="vqwiw2_gKDiQgsgXIF1e" version="24.4.7" type="device">
  <diagram name="第 1 页" id="j8MeEUqB5f1i5MSbie5y">
    <mxGraphModel dx="1102" dy="702" grid="1" gridSize="10" guides="1" tooltips="1" connect="1" arrows="1" fold="1" page="1" pageScale="1" pageWidth="827" pageHeight="1169" math="0" shadow="0">
      <root>
        <mxCell id="0" />
        <mxCell id="1" parent="0" />
        <mxCell id="I7nJwZLafJmbs8X3b3s0-1" value="BJ_Attendee" style="swimlane;fontStyle=0;childLayout=stackLayout;horizontal=1;startSize=26;fillColor=none;horizontalStack=0;resizeParent=1;resizeParentMax=0;resizeLast=0;collapsible=1;marginBottom=0;whiteSpace=wrap;html=1;" vertex="1" parent="1">
          <mxGeometry x="180" y="80" width="300" height="104" as="geometry" />
        </mxCell>
        <mxCell id="I7nJwZLafJmbs8X3b3s0-2" value="+ cardCollections: Arraylist&amp;lt;BJ_CardCollection&amp;gt;" style="text;strokeColor=none;fillColor=none;align=left;verticalAlign=top;spacingLeft=4;spacingRight=4;overflow=hidden;rotatable=0;points=[[0,0.5],[1,0.5]];portConstraint=eastwest;whiteSpace=wrap;html=1;" vertex="1" parent="I7nJwZLafJmbs8X3b3s0-1">
          <mxGeometry y="26" width="300" height="26" as="geometry" />
        </mxCell>
        <mxCell id="I7nJwZLafJmbs8X3b3s0-3" value="+ totalPoints: int[]" style="text;strokeColor=none;fillColor=none;align=left;verticalAlign=top;spacingLeft=4;spacingRight=4;overflow=hidden;rotatable=0;points=[[0,0.5],[1,0.5]];portConstraint=eastwest;whiteSpace=wrap;html=1;" vertex="1" parent="I7nJwZLafJmbs8X3b3s0-1">
          <mxGeometry y="52" width="300" height="26" as="geometry" />
        </mxCell>
        <mxCell id="I7nJwZLafJmbs8X3b3s0-4" value="+ winflag:int[]" style="text;strokeColor=none;fillColor=none;align=left;verticalAlign=top;spacingLeft=4;spacingRight=4;overflow=hidden;rotatable=0;points=[[0,0.5],[1,0.5]];portConstraint=eastwest;whiteSpace=wrap;html=1;" vertex="1" parent="I7nJwZLafJmbs8X3b3s0-1">
          <mxGeometry y="78" width="300" height="26" as="geometry" />
        </mxCell>
        <mxCell id="I7nJwZLafJmbs8X3b3s0-9" value="CardCollection" style="swimlane;fontStyle=0;childLayout=stackLayout;horizontal=1;startSize=26;fillColor=none;horizontalStack=0;resizeParent=1;resizeParentMax=0;resizeLast=0;collapsible=1;marginBottom=0;whiteSpace=wrap;html=1;" vertex="1" parent="1">
          <mxGeometry x="180" y="330" width="140" height="78" as="geometry" />
        </mxCell>
        <mxCell id="I7nJwZLafJmbs8X3b3s0-10" value="# cards: Arraylist&amp;lt;T&amp;gt;" style="text;strokeColor=none;fillColor=none;align=left;verticalAlign=top;spacingLeft=4;spacingRight=4;overflow=hidden;rotatable=0;points=[[0,0.5],[1,0.5]];portConstraint=eastwest;whiteSpace=wrap;html=1;" vertex="1" parent="I7nJwZLafJmbs8X3b3s0-9">
          <mxGeometry y="26" width="140" height="26" as="geometry" />
        </mxCell>
        <mxCell id="I7nJwZLafJmbs8X3b3s0-11" value="# totalcards: int" style="text;strokeColor=none;fillColor=none;align=left;verticalAlign=top;spacingLeft=4;spacingRight=4;overflow=hidden;rotatable=0;points=[[0,0.5],[1,0.5]];portConstraint=eastwest;whiteSpace=wrap;html=1;" vertex="1" parent="I7nJwZLafJmbs8X3b3s0-9">
          <mxGeometry y="52" width="140" height="26" as="geometry" />
        </mxCell>
        <mxCell id="I7nJwZLafJmbs8X3b3s0-13" value="Extends" style="endArrow=block;endSize=16;endFill=0;html=1;rounded=0;" edge="1" parent="1" source="I7nJwZLafJmbs8X3b3s0-14" target="I7nJwZLafJmbs8X3b3s0-9">
          <mxGeometry width="160" relative="1" as="geometry">
            <mxPoint x="470" y="370" as="sourcePoint" />
            <mxPoint x="490" y="360" as="targetPoint" />
          </mxGeometry>
        </mxCell>
        <mxCell id="I7nJwZLafJmbs8X3b3s0-14" value="BJ_CardCollection" style="html=1;whiteSpace=wrap;" vertex="1" parent="1">
          <mxGeometry x="490" y="344" width="110" height="50" as="geometry" />
        </mxCell>
        <mxCell id="I7nJwZLafJmbs8X3b3s0-15" value="has" style="endArrow=none;endSize=12;dashed=1;html=1;rounded=0;endFill=0;" edge="1" parent="1" source="I7nJwZLafJmbs8X3b3s0-14" target="I7nJwZLafJmbs8X3b3s0-1">
          <mxGeometry width="160" relative="1" as="geometry">
            <mxPoint x="330" y="360" as="sourcePoint" />
            <mxPoint x="490" y="360" as="targetPoint" />
          </mxGeometry>
        </mxCell>
        <mxCell id="I7nJwZLafJmbs8X3b3s0-21" value="1" style="edgeLabel;html=1;align=center;verticalAlign=middle;resizable=0;points=[];" vertex="1" connectable="0" parent="I7nJwZLafJmbs8X3b3s0-15">
          <mxGeometry x="0.7279" relative="1" as="geometry">
            <mxPoint y="1" as="offset" />
          </mxGeometry>
        </mxCell>
        <mxCell id="I7nJwZLafJmbs8X3b3s0-22" value="1...2" style="edgeLabel;html=1;align=center;verticalAlign=middle;resizable=0;points=[];" vertex="1" connectable="0" parent="I7nJwZLafJmbs8X3b3s0-15">
          <mxGeometry x="-0.7779" y="-3" relative="1" as="geometry">
            <mxPoint as="offset" />
          </mxGeometry>
        </mxCell>
      </root>
    </mxGraphModel>
  </diagram>
</mxfile>
